# xmcd
#
# Track frame offsets:
#	150
#	15981
#	27387
#	41068
#	57519
#	69062
#	81727
#	107212
#	123596
#	141757
#	155209
#	179300
#
# Disc length: 2780 seconds
#
# Revision: 1
# Processed by: cddbd v1.5.1PL0 Copyright (c) Steve Scherf et al.
# Submitted via: audiograbber 1.83.01
#
DISCID=a90ada0c
DTITLE=Southern Company - Blue Moon
DYEAR=2003
DGENRE=Country
TTITLE0=Blue Moon of Kentucky
TTITLE1=Great Balls of Fire
TTITLE2=Who'll Stop the Rain
TTITLE3=Hang on Sloopy
TTITLE4=Teenager in Love
TTITLE5=Whiskey in the Jar
TTITLE6=Carolina Mountain Dewe
TTITLE7=Crazy Arms
TTITLE8=Chattahoochee
TTITLE9=Cherokee Boogie
TTITLE10=Rockin' All Over the World
TTITLE11=Ain't Going Down
EXTD=
EXTT0=
EXTT1=
EXTT2=
EXTT3=
EXTT4=
EXTT5=
EXTT6=
EXTT7=
EXTT8=
EXTT9=
EXTT10=
EXTT11=
PLAYORDER=
